<?xml version="1.0" encoding="utf-8"?>
<!-- Generator: Adobe Illustrator 18.0.0, SVG Export Plug-In . SVG Version: 6.00 Build 0)  -->
<!DOCTYPE svg PUBLIC "-//W3C//DTD SVG 1.1//EN" "http://www.w3.org/Graphics/SVG/1.1/DTD/svg11.dtd">
<svg version="1.1" id="Layer_1" xmlns="http://www.w3.org/2000/svg" xmlns:xlink="http://www.w3.org/1999/xlink" x="0px" y="0px"
	 viewBox="0 0 120 50" enable-background="new 0 0 120 50" xml:space="preserve">
<rect x="0" y="0" fill="#EAE6DE" width="119.8" height="49.9"/>
<g>
	<polygon fill="#010202" points="11,18.6 11,31.3 14.4,31.3 14.4,25.8 21.7,25.8 21.7,31.3 25.1,31.3 25.1,18.6 21.7,18.6 
		21.7,23.2 14.4,23.2 14.4,18.6 	"/>
	<polygon fill="#010202" points="63.1,18.6 63.1,21.3 68,21.3 68,31.3 71.4,31.3 71.4,21.3 76.3,21.3 76.3,18.6 	"/>
	<polygon fill="#010202" points="91.1,18.6 91.1,21.3 82.1,21.3 82.1,23.2 89.7,23.2 89.7,25.8 82.1,25.8 82.1,28.6 91.1,28.6 
		91.1,31.3 78.7,31.3 78.7,18.6 	"/>
	<path fill="#010202" d="M2.1,2.1h115.6v45.7H2.1V2.1z M0,49.9h119.8V0H0V49.9z"/>
	<path fill="#010202" d="M114.8,44.9H5V5h109.8V44.9z M4.3,45.6h111.2V4.3H4.3V45.6z"/>
	<path fill="#010202" d="M103.7,23.9h-6.1v-2.8h6.1C105.4,21.1,105.4,23.9,103.7,23.9 M105.2,26.4c2.1-0.3,3.1-1.9,3.1-4
		c0-2.1-1.8-3.7-3.9-3.7H94.2v12.7h3.4v-4.8h3.5l3.8,4.8h4.3L105.2,26.4z"/>
	<polygon fill="#010202" points="46.7,18.6 50.3,18.6 57.3,27.3 57.3,18.6 60.8,18.6 60.8,31.3 56.8,31.3 50.1,23 50.1,31.3 
		46.7,31.3 	"/>
	<path fill="#010202" d="M35.9,28.6c2.2,0,3.6-0.8,3.6-2.6v-7.4h3.4v8c0,3.3-3.3,5-7.2,5c-3.8,0-7-1.7-7-5v-8h3.4V26
		C32.2,27.8,33.7,28.6,35.9,28.6"/>
</g>
<text transform="matrix(1 0 0 1 297.6401 420.9452)" font-family="'MyriadPro-Regular'" font-size="12">EAE6DE</text>
</svg>
